<svg id="Layer_1" data-name="Layer 1" xmlns="http://www.w3.org/2000/svg" viewBox="0 0 931.99 267"><title>reactql-logo</title><path d="M55.63,85.29l3.71-6.67L220.28,241l-3,3.71H213.6ZM229.92,244.75H81.58V267H229.92Z" style="fill:#ff4081"/><path d="M255.13,183.19l-3.71,6.67L91.23,26l2.23-3.71H97.9Zm-37.83,61.56L229.92,267,311.5,133.5h-26Z" style="fill:#9c27b0"/><path d="M229.92,22.25H81.58V0H229.92Zm-12.61,0h-4.45L54.88,181l3.71,6.67L219.53,26Z" style="fill:#00bcd4"/><path d="M93.45,22.25,18.54,145.37,0,133.5,81.58,0Zm126.08,3-2.22-3H204.7L63.78,71.2l-5.93,9.64Z" style="fill:#ffc107"/><path d="M94.19,244.75,81.58,267,0,133.5H26Zm2.23-59.33V22.25h-3L89,29.67V185.42H57.85l4.45,7.42H89v43.76l5.19,8.16h2.23V192.83H249.2l4.45-7.42Z" style="fill:#ff5722"/><path d="M249.94,75.65,92.71,242.53l1.48,2.22h6.68l152-161.68-40,161.68h5.19l4.45-7.42L259.58,90.48Zm35.6,57.85L217.31,22.25,229.92,0,311.5,133.5Z" style="fill:#03a9f4"/><path d="M427,122.09q0,20.16-16,26l21.24,30h-23l-18.6-26.76h-13v26.76H359V94.25h31.8q19.56,0,27.9,6.6T427,122.09Zm-22.56,10q3.48-3.12,3.48-9.9t-3.6-9.3q-3.6-2.52-12.6-2.52h-14v24.84h13.68Q401,135.17,404.47,132.05Z"/><path d="M506.71,94.25v16.68H465v17.28h37.56v16H465v17.4H508v16.56h-61.8V94.25Z"/><path d="M584.47,178.13,576.67,160H541.51l-7.8,18.12H513.79L550,94.25h18.12l36.24,83.88Zm-25.32-58.92-10.56,24.36h21Z"/><path d="M652.63,161.57a27.62,27.62,0,0,0,22.56-10.92l12,12.36q-14.28,16.08-33.66,16.08t-31.92-12.24q-12.54-12.24-12.54-30.9t12.78-31.14q12.78-12.48,31.26-12.48,20.64,0,34.56,15.72L676,121.25q-8.88-11-22.08-11a25.74,25.74,0,0,0-18.06,6.9q-7.5,6.9-7.5,18.6t7.08,18.78A23.36,23.36,0,0,0,652.63,161.57Z"/><path d="M737.47,110.45v67.68H718.75V110.45H695V94.25h66.24v16.2Z"/><path d="M858.19,135.65a42.8,42.8,0,0,1-6.66,23.52,41.16,41.16,0,0,1-17.94,15.6,8.6,8.6,0,0,0,3.42,3.06,10.12,10.12,0,0,0,4.86,1.26,15.86,15.86,0,0,0,4.92-.78,13.2,13.2,0,0,0,3.84-1.86,17.5,17.5,0,0,0,4.44-4.92l9.72,11.64q-10.32,10.92-25.8,10.92a28.33,28.33,0,0,1-14.16-4A26.61,26.61,0,0,1,814.15,179q-18.6,0-31.32-12.42t-12.72-30.9q0-18.48,12.72-30.9t31.32-12.42q18.6,0,31.32,12.42T858.19,135.65Zm-19.08.06a27.45,27.45,0,0,0-7.2-19.14,23.74,23.74,0,0,0-35.4,0,29,29,0,0,0,0,38.22,23.86,23.86,0,0,0,35.4,0A27.23,27.23,0,0,0,839.11,135.71Z"/><path d="M874.15,178.13V94.25h18.72v67.2h35.76v16.68Z"/></svg>